Coordinates
version=1
nRows=11
nColumns=42
inDegrees=yes

Units are S.I. units (second, meters, Newtons, ...)
If the header above contains a line with 'inDegrees', this indicates whether rotational values are in degrees (yes) or radians (no).

endheader
time	pelvis_tilt	pelvis_list	pelvis_rotation	pelvis_tx	pelvis_ty	pelvis_tz	hip_flexion_r	hip_adduction_r	hip_rotation_r	knee_angle_r	knee_adduction_r	knee_angle_r_beta	ankle_angle_r	subtalar_angle_r	mtp_angle_r	hip_flexion_l	hip_adduction_l	hip_rotation_l	knee_angle_l	knee_adduction_l	knee_angle_l_beta	ankle_angle_l	subtalar_angle_l	mtp_angle_l	lumbar_extension	lumbar_bending	lumbar_rotation	arm_flex_r	arm_add_r	arm_rot_r	elbow_flex_r	pro_sup_r	wrist_flex_r	wrist_dev_r	arm_flex_l	arm_add_l	arm_rot_l	elbow_flex_l	pro_sup_l	wrist_flex_l	wrist_dev_l
      1.75000000	      4.93785188	     -0.15589992	     12.53717735	     -0.64937840	      0.87628292	     -0.18481553	     18.04526640	     -6.53720640	    -24.93416095	     31.69925493	     -4.46604306	      0.55325637	     13.57086953	     24.99715534	     -7.68617161	      0.56754586	      0.16774651	     -1.33627487	     35.12732511	     -5.48488848	      0.61308748	     25.02677583	     20.96731762	     -7.68617161	    -28.90308258	     10.60413228	     -4.17819494	      0.25850861	    -12.12067947	    -18.71832130	     48.53080217	     90.00000001	      0.00000000	      0.00000000	     18.73086748	     -9.05983049	     32.02568700	     49.17776708	     90.00000001	      0.00000000	      0.00000000
      1.76000000	      5.17116495	     -0.10223366	     12.54699621	     -0.64512947	      0.87767224	     -0.18292273	     17.26975907	     -6.32239780	    -25.46659848	     31.25246778	     -4.59837976	      0.54545846	     14.02914008	     25.94286957	     -7.68191574	     -0.01323900	     -0.13235100	     -1.36758194	     34.96504681	     -5.31329854	      0.61025519	     24.09123771	     20.83758736	     -7.68191574	    -29.10564316	     10.60964269	     -4.19109300	      0.42983842	    -12.19165776	    -18.26709380	     48.85786680	     90.00000001	      0.00000000	      0.00000000	     18.54831741	     -9.18466938	     32.42167069	     49.20612031	     90.00000001	      0.00000000	      0.00000000
      1.77000000	      5.00833616	      0.00901059	     12.42224448	     -0.64122068	      0.87837111	     -0.18096970	     17.11595326	     -6.31743810	    -25.58546574	     31.19419149	     -4.54808822	      0.54444135	     14.05995631	     25.97048025	     -7.68139210	     -0.06645121	     -0.17496340	     -1.37962540	     35.04055922	     -5.24626996	      0.61157313	     23.97285962	     20.80929862	     -7.68139210	    -28.90686041	     10.43664662	     -4.17045992	      0.67428988	    -12.18105082	    -18.21559020	     49.00471029	     90.00000001	      0.00000000	      0.00000000	     18.28472928	     -9.17935583	     32.48999980	     49.15161140	     90.00000001	      0.00000000	      0.00000000
      1.78000000	      4.89736682	      0.15305147	     12.32568738	     -0.63719678	      0.87916284	     -0.17900990	     16.83075634	     -6.32567119	    -25.82051335	     30.99440160	     -4.53400665	      0.54095436	     14.20696030	     26.15727094	     -7.68058741	     -0.14584309	     -0.27926587	     -1.48177773	     35.18824102	     -5.05772669	      0.61415066	     23.56773415	     20.73491798	     -7.68058741	    -28.74277511	     10.23853775	     -4.26766932	      0.92694132	    -12.14475778	    -18.11064774	     49.20827375	     90.00000001	      0.00000000	      0.00000000	     18.02011302	     -9.25898854	     32.61821353	     49.07599901	     90.00000001	      0.00000000	      0.00000000
      1.79000000	      5.11796271	      0.17655165	     12.43605964	     -0.63313169	      0.88047275	     -0.17722541	     16.04886516	     -6.11386944	    -26.56249671	     30.49595106	     -4.70598384	      0.53225475	     14.72955200	     27.46574873	     -7.67803299	     -0.48803363	     -0.57057294	     -1.39142672	     35.41643054	     -4.96341192	      0.61813332	     22.16406022	     20.36964758	     -7.67803299	    -28.90904103	     10.31199523	     -4.34376930	      1.10774858	    -12.21585663	    -17.74840289	     49.48857857	     90.00000001	      0.00000000	      0.00000000	     17.90603365	     -9.39288982	     33.14391627	     49.15619991	     90.00000001	      0.00000000	      0.00000000
      1.80000000	      4.98099315	      0.30735769	     12.26090902	     -0.62913653	      0.88120080	     -0.17529759	     15.86589388	     -6.13132908	    -26.71380936	     30.43389529	     -4.67703850	      0.53117168	     14.74160736	     27.53779591	     -7.67753603	     -0.53484188	     -0.58285305	     -1.38519477	     35.55477428	     -4.87423315	      0.62054788	     22.06288529	     20.31535550	     -7.67753603	    -28.73094577	     10.11726693	     -4.30322924	      1.33286685	    -12.19902620	    -17.68994710	     49.62387388	     90.00000001	      0.00000000	      0.00000000	     17.62773066	     -9.36392727	     33.23861517	     49.11184083	     90.00000001	      0.00000000	      0.00000000
      1.81000000	      4.93408913	      0.49820372	     12.14876020	     -0.62512137	      0.88202729	     -0.17336700	     15.51985259	     -6.17464957	    -26.96821741	     30.25469421	     -4.68887030	      0.52804403	     14.84594811	     27.82477867	     -7.67698526	     -0.58104435	     -0.63099857	     -1.46047885	     35.90857532	     -4.68034593	      0.62672287	     21.66218916	     20.20204913	     -7.67698526	    -28.62739220	      9.88165110	     -4.38924596	      1.55742804	    -12.16953360	    -17.59296775	     49.79143754	     90.00000001	      0.00000000	      0.00000000	     17.41905423	     -9.42354222	     33.40312481	     49.05010029	     90.00000001	      0.00000000	      0.00000000
      1.82000000	      5.11630674	      0.47984304	     12.37331155	     -0.62104855	      0.88312182	     -0.17179611	     14.77096019	     -5.98131464	    -28.00344633	     29.73284617	     -4.91648241	      0.51893606	     15.29025371	     29.75505470	     -7.67347688	     -0.66486300	     -0.99744289	     -1.31011918	     36.50081866	     -4.49943697	      0.63705947	     20.00331519	     19.31135557	     -7.67347688	    -28.69527413	     10.03209980	     -4.57248107	      1.67103431	    -12.26857959	    -17.15282430	     50.10224280	     90.00000001	      0.00000000	      0.00000000	     17.31908987	     -9.62293307	     34.26375497	     49.20760051	     90.00000001	      0.00000000	      0.00000000
      1.83000000	      5.16425339	      0.67564155	     12.28292387	     -0.61718758	      0.88400907	     -0.16989243	     14.34478473	     -6.03704208	    -28.23873035	     29.62618133	     -4.89432395	      0.51707441	     15.37134553	     30.18031960	     -7.67236521	     -0.69023474	     -1.01270577	     -1.25088953	     37.06319245	     -4.34442743	      0.64687474	     19.60302750	     19.12911026	     -7.67236521	    -28.73657375	      9.80383413	     -4.60698355	      1.90376610	    -12.23388557	    -17.04369440	     50.24043619	     90.00000001	      0.00000000	      0.00000000	     17.21946839	     -9.67358234	     34.46863862	     49.15976995	     90.00000001	      0.00000000	      0.00000000
      1.84000000	      5.29481118	      0.71517675	     12.44510519	     -0.61317558	      0.88492574	     -0.16834416	     13.72953619	     -5.95639477	    -29.16331895	     29.29356372	     -5.04328647	      0.51126914	     15.58789905	     31.91011538	     -7.66429416	     -0.71137856	     -1.22992374	     -0.77488165	     37.72069657	     -4.05270983	      0.65835035	     18.49892347	     17.93307207	     -7.66429416	    -28.74421836	      9.87107135	     -4.75858969	      2.01213448	    -12.31986739	    -16.71204610	     50.46868182	     90.00000001	      0.00000000	      0.00000000	     17.16472968	     -9.86226524	     35.41403677	     49.25360164	     90.00000001	      0.00000000	      0.00000000
      1.85000000	      5.37014318	      0.84723858	     12.41464925	     -0.60930225	      0.88573414	     -0.16666220	     13.23008858	     -5.95066127	    -29.18527553	     29.13987990	     -4.85494090	      0.50858685	     15.76249201	     32.02736788	     -7.66301644	     -0.60167062	     -1.31374409	     -0.81590755	     38.51151352	     -3.99705454	      0.67215271	     17.71615918	     17.84444168	     -7.66301644	    -28.76344581	      9.75945529	     -4.81999049	      2.23937413	    -12.31446741	    -16.68158862	     50.58025790	     90.00000001	      0.00000000	      0.00000000	     17.04513032	     -9.84967670	     35.53577953	     49.21900700	     90.00000001	      0.00000000	      0.00000000
